<?xml version="1.0" encoding="UTF-8"?>
<!DOCTYPE svg PUBLIC "-//W3C//DTD SVG 1.1//EN" "http://www.w3.org/Graphics/SVG/1.1/DTD/svg11.dtd">
<svg xmlns="http://www.w3.org/2000/svg" version="1.1" width="655px" height="563px" style="shape-rendering:geometricPrecision; text-rendering:geometricPrecision; image-rendering:optimizeQuality; fill-rule:evenodd; clip-rule:evenodd" xmlns:xlink="http://www.w3.org/1999/xlink">
<g><path style="opacity:0.997" fill="#020202" d="M 382.5,57.5 C 382.054,60.0101 382.72,62.0101 384.5,63.5C 386.746,69.0621 388.913,74.7287 391,80.5C 392.574,81.8476 394.407,82.5142 396.5,82.5C 403.651,78.7547 410.318,74.2547 416.5,69C 421.87,66.2153 426.036,67.382 429,72.5C 430.761,80.366 431.761,88.366 432,96.5C 435.561,101.01 439.728,101.677 444.5,98.5C 446.967,98.2451 448.967,97.2451 450.5,95.5C 453.352,93.9091 456.352,92.5758 459.5,91.5C 461.764,90.7814 464.097,90.448 466.5,90.5C 467.721,91.0283 468.887,91.695 470,92.5C 470.168,102.849 470.668,113.183 471.5,123.5C 472.929,124.935 474.595,125.935 476.5,126.5C 485.2,123.06 494.2,121.227 503.5,121C 508.203,123.666 509.536,127.499 507.5,132.5C 506.883,132.611 506.383,132.944 506,133.5C 505.503,135.81 505.337,138.143 505.5,140.5C 505.737,141.791 505.404,142.791 504.5,143.5C 503.2,145.223 502.533,147.39 502.5,150C 502.533,152.61 503.2,154.777 504.5,156.5C 507.361,158.073 510.528,158.739 514,158.5C 521.16,157.691 528.327,157.524 535.5,158C 537.881,159.509 538.881,161.675 538.5,164.5C 535.107,172.918 531.773,181.418 528.5,190C 528.903,192.887 530.236,195.221 532.5,197C 541.226,197.908 549.893,199.241 558.5,201C 562.315,204.942 562.482,209.108 559,213.5C 554.94,218.052 551.107,222.719 547.5,227.5C 546.348,230.106 546.182,232.773 547,235.5C 549.404,237.955 552.238,239.788 555.5,241C 561.17,242.839 566.836,244.839 572.5,247C 576.377,250.752 576.377,254.585 572.5,258.5C 566.76,263.911 561.094,269.244 555.5,274.5C 554.848,275.449 554.514,276.615 554.5,278C 554.608,279.681 555.275,280.848 556.5,281.5C 563.095,286.474 570.095,290.974 577.5,295C 580.383,299.269 580.05,303.269 576.5,307C 569.081,311.125 561.914,315.625 555,320.5C 554.186,322.902 554.353,325.235 555.5,327.5C 561.801,333.295 568.301,338.962 575,344.5C 575.936,347.792 575.436,350.792 573.5,353.5C 564.598,356.938 555.765,360.604 547,364.5C 546.333,367.167 546.333,369.833 547,372.5C 550.381,376.375 553.547,380.375 556.5,384.5C 556.273,386.933 557.273,388.599 559.5,389.5C 562.451,393.69 561.784,397.357 557.5,400.5C 548.878,402.191 540.211,403.691 531.5,405C 529.686,405.92 528.686,407.42 528.5,409.5C 528.968,412.233 529.635,414.9 530.5,417.5C 530.889,421.847 532.556,425.514 535.5,428.5C 539.316,433.274 539.316,438.107 535.5,443C 525.5,443.333 515.5,443.667 505.5,444C 504.177,444.816 503.511,445.983 503.5,447.5C 502.518,450.962 502.185,454.629 502.5,458.5C 503.5,458.5 504.5,458.5 505.5,458.5C 505.5,459.167 505.5,459.833 505.5,460.5C 505.446,466.352 506.112,472.019 507.5,477.5C 506.522,477.811 505.855,478.478 505.5,479.5C 503.5,479.833 501.5,480.167 499.5,480.5C 492.023,479.037 484.523,477.37 477,475.5C 474.808,475.863 472.974,476.863 471.5,478.5C 469.525,488.446 468.858,498.779 469.5,509.5C 467.074,511.218 464.407,511.718 461.5,511C 454.617,508.443 447.951,505.443 441.5,502C 439.866,501.506 438.199,501.34 436.5,501.5C 434.629,501.859 433.129,502.859 432,504.5C 431.708,508.882 431.208,513.215 430.5,517.5C 429.883,517.611 429.383,517.944 429,518.5C 428.502,521.482 428.335,524.482 428.5,527.5C 427.885,531.448 425.552,533.782 421.5,534.5C 413.454,529.965 405.788,524.798 398.5,519C 396.087,518.516 393.754,518.85 391.5,520C 387.797,528.45 384.297,536.95 381,545.5C 378.519,547.314 375.685,547.98 372.5,547.5C 366.6,541.185 360.6,534.852 354.5,528.5C 353.551,527.848 352.385,527.514 351,527.5C 348.992,527.307 347.492,527.974 346.5,529.5C 341.482,537.026 336.482,544.526 331.5,552C 329.19,552.497 326.857,552.663 324.5,552.5C 319.58,544.94 314.747,537.273 310,529.5C 306.535,526.872 303.035,526.872 299.5,529.5C 294.663,535.835 289.33,541.668 283.5,547C 277.472,548.628 273.639,546.461 272,540.5C 269.844,533.872 268.011,527.205 266.5,520.5C 264.095,520.134 261.762,519.467 259.5,518.5C 256.284,519.4 253.618,521.067 251.5,523.5C 247.98,524.353 245.313,526.353 243.5,529.5C 240.651,531.425 237.651,533.091 234.5,534.5C 229.351,534.128 227.018,531.461 227.5,526.5C 227.741,524.102 227.074,522.102 225.5,520.5C 225.5,519.5 225.5,518.5 225.5,517.5C 226.08,513.351 225.414,509.684 223.5,506.5C 222.137,503.017 219.47,501.35 215.5,501.5C 212.911,501.461 210.911,502.461 209.5,504.5C 204.222,506.142 199.222,508.308 194.5,511C 191.808,511.43 189.141,511.263 186.5,510.5C 186.567,509.041 186.234,507.708 185.5,506.5C 185.418,499.149 185.751,491.816 186.5,484.5C 186.461,482.048 185.794,480.048 184.5,478.5C 183.488,476.124 181.655,475.124 179,475.5C 172.449,476.776 165.949,478.276 159.5,480C 152.075,482.224 148.408,479.557 148.5,472C 148.504,469.639 148.837,467.473 149.5,465.5C 150.117,465.389 150.617,465.056 151,464.5C 151.101,461.3 151.768,458.3 153,455.5C 153.801,452.633 153.634,449.966 152.5,447.5C 151.859,446.518 151.193,445.518 150.5,444.5C 140.517,443.668 130.517,443.168 120.5,443C 119.667,442.167 118.833,441.333 118,440.5C 117.502,437.518 117.335,434.518 117.5,431.5C 118.5,431.5 119.5,431.5 120.5,431.5C 120.691,427.597 121.691,423.93 123.5,420.5C 125.083,419.064 126.583,417.398 128,415.5C 128.789,413.288 128.622,411.288 127.5,409.5C 126.386,408.115 125.386,406.615 124.5,405C 115.571,403.451 106.571,402.118 97.5,401C 94.8059,398.347 93.9726,395.18 95,391.5C 99.242,385.369 103.742,379.369 108.5,373.5C 109.833,370.5 109.833,367.5 108.5,364.5C 103.808,361.743 98.8084,359.743 93.5,358.5C 91.6051,356.759 89.2718,355.759 86.5,355.5C 85.3951,354.4 84.0618,353.733 82.5,353.5C 82.5,350.167 82.5,346.833 82.5,343.5C 88.1375,338.033 93.9708,332.699 100,327.5C 100.667,324.833 100.667,322.167 100,319.5C 99.6174,318.944 99.1174,318.611 98.5,318.5C 98.0269,317.094 97.0269,316.427 95.5,316.5C 95.0269,315.094 94.0269,314.427 92.5,314.5C 86.9514,312.143 81.7847,309.143 77,305.5C 76.3333,302.5 76.3333,299.5 77,296.5C 84.1082,291.031 91.6082,286.198 99.5,282C 100.61,279.263 100.777,276.429 100,273.5C 93.7677,268.49 87.9344,263.157 82.5,257.5C 81.9084,254.873 81.5751,252.206 81.5,249.5C 82.8936,247.292 84.8936,245.792 87.5,245C 92.7005,242.877 98.0339,241.044 103.5,239.5C 105.936,239.683 108.103,239.016 110,237.5C 110.805,234.304 110.638,231.304 109.5,228.5C 107.807,227.525 106.307,226.192 105,224.5C 102.973,220.374 100.473,216.707 97.5,213.5C 97.7148,211.821 97.0481,210.821 95.5,210.5C 93.7151,206.848 94.3818,203.848 97.5,201.5C 102.41,200.26 107.41,199.427 112.5,199C 113.056,198.617 113.389,198.117 113.5,197.5C 118.726,198.467 123.059,197.134 126.5,193.5C 128.026,192.508 128.693,191.008 128.5,189C 128.392,187.319 127.725,186.152 126.5,185.5C 125.662,185.158 125.328,184.492 125.5,183.5C 125.715,181.821 125.048,180.821 123.5,180.5C 122.065,176.33 120.231,172.33 118,168.5C 116.996,165.007 117.496,161.841 119.5,159C 129.849,158.832 140.183,158.332 150.5,157.5C 151.193,156.482 151.859,155.482 152.5,154.5C 153.156,153.378 153.489,152.045 153.5,150.5C 153.415,148.667 152.748,147.334 151.5,146.5C 151.5,145.833 151.5,145.167 151.5,144.5C 151.664,141.813 151.497,139.146 151,136.5C 150.617,135.944 150.117,135.611 149.5,135.5C 148.189,131.317 148.189,126.984 149.5,122.5C 150.5,122 151.5,121.5 152.5,121C 161.644,122.36 170.811,124.194 180,126.5C 181.643,125.685 183.143,124.685 184.5,123.5C 185.496,123.586 186.329,123.252 187,122.5C 187.49,115.109 186.99,107.775 185.5,100.5C 185.345,97.2317 186.011,94.2317 187.5,91.5C 189.16,89.7516 191.16,89.2516 193.5,90C 201.317,93.661 209.15,97.161 217,100.5C 219.032,100.142 220.866,99.3083 222.5,98C 223.252,97.3292 223.586,96.4959 223.5,95.5C 225.369,93.3647 226.036,90.6981 225.5,87.5C 225.714,81.7406 226.547,76.074 228,70.5C 231.337,67.0298 235.17,66.5298 239.5,69C 245.629,74.1387 252.129,78.6387 259,82.5C 260.984,82.2587 262.817,81.5921 264.5,80.5C 266.336,76.4104 268.003,72.4104 269.5,68.5C 271.256,67.4479 271.923,65.7812 271.5,63.5C 272.532,54.797 277.198,51.797 285.5,54.5C 285.351,55.552 285.517,56.552 286,57.5C 291.806,61.9728 296.973,67.1395 301.5,73C 304.146,73.4974 306.813,73.6641 309.5,73.5C 309.351,72.448 309.517,71.448 310,70.5C 314.616,63.4411 319.116,56.2744 323.5,49C 326.167,48.3333 328.833,48.3333 331.5,49C 336.836,57.031 342.169,65.031 347.5,73C 349.833,73.6667 352.167,73.6667 354.5,73C 359.805,67.0256 365.138,61.0256 370.5,55C 375.25,52.6901 379.25,53.5235 382.5,57.5 Z M 325.5,94.5 C 334.755,94.4377 339.755,98.9377 340.5,108C 338.5,119.187 332.167,123.02 321.5,119.5C 316.584,116.362 313.917,111.862 313.5,106C 315.779,100.218 319.779,96.385 325.5,94.5 Z M 444.5,267.5 C 445.735,267.279 446.735,266.612 447.5,265.5C 459.33,247.72 460.164,229.387 450,210.5C 437.39,190.118 419.223,178.785 395.5,176.5C 328.838,174.835 261.838,173.835 194.5,173.5C 198.236,170.431 201.569,167.097 204.5,163.5C 229.6,141.117 258.6,126.45 291.5,119.5C 293.405,120.065 295.071,121.065 296.5,122.5C 303.557,131.594 311.723,139.594 321,146.5C 328.019,148.537 334.186,147.037 339.5,142C 347.167,134.667 354.833,127.333 362.5,120C 402.07,127.457 435.736,145.957 463.5,175.5C 470.446,183.861 476.946,192.528 483,201.5C 484.217,203.507 485.051,205.674 485.5,208C 480.897,220.314 475.731,232.481 470,244.5C 468.819,249.725 468.319,254.558 468.5,259C 470.5,261.333 472.5,263.667 474.5,266C 486.032,271.622 497.698,276.789 509.5,281.5C 510.499,291.478 510.832,301.478 510.5,311.5C 503.446,310.991 496.446,310.991 489.5,311.5C 489.449,317.34 489.282,323.34 489,329.5C 485.605,345.554 475.772,351.721 459.5,348C 454.094,346.927 450.594,343.761 449,338.5C 446.482,318.456 437.315,302.122 421.5,289.5C 429.689,283.988 437.189,277.655 444,270.5C 444.483,269.552 444.649,268.552 444.5,267.5 Z M 148.5,278.5 C 157.915,274.962 167.249,271.129 176.5,267C 179.106,266.208 181.106,264.708 182.5,262.5C 185.921,259.932 187.254,256.432 186.5,252C 185.795,246.005 183.795,240.505 180.5,235.5C 187.468,234.503 194.468,234.17 201.5,234.5C 201.5,272.5 201.5,310.5 201.5,348.5C 184.819,348.666 168.152,348.333 151.5,347.5C 150.072,336.404 148.239,325.404 146,314.5C 145.333,303.5 145.333,292.5 146,281.5C 147.045,280.627 147.878,279.627 148.5,278.5 Z M 288.5,234.5 C 291.972,234.126 294.972,235.126 297.5,237.5C 298.795,236.902 300.128,236.402 301.5,236C 316.699,235.81 331.865,235.31 347,234.5C 355.673,235.156 362.673,238.822 368,245.5C 368.827,249.541 368.66,253.541 367.5,257.5C 363.112,261.362 358.112,264.195 352.5,266C 331.169,266.5 309.836,266.667 288.5,266.5C 288.5,255.833 288.5,245.167 288.5,234.5 Z M 143.5,230.5 C 154.976,230.541 161.309,235.708 162.5,246C 159.833,252.002 155.333,255.835 149,257.5C 138.513,255.368 134.18,249.035 136,238.5C 138.085,235.254 140.585,232.587 143.5,230.5 Z M 512.5,257.5 C 495.732,258.344 490.398,251.01 496.5,235.5C 499.332,233.169 502.499,231.503 506,230.5C 514.995,232.812 519.828,238.312 520.5,247C 517.951,250.601 515.285,254.101 512.5,257.5 Z M 304.5,318.5 C 311.81,319.635 319.31,319.635 327,318.5C 336.965,318.365 345.799,321.365 353.5,327.5C 356.33,330.817 358.497,334.484 360,338.5C 363.233,352.604 366.233,366.604 369,380.5C 373.545,393.375 381.711,403.208 393.5,410C 419.498,410.5 445.498,410.667 471.5,410.5C 469.818,415.844 466.651,420.177 462,423.5C 461.517,424.448 461.351,425.448 461.5,426.5C 449.154,424.331 436.82,421.998 424.5,419.5C 418.058,420.473 413.225,423.806 410,429.5C 407.851,441.112 405.518,452.779 403,464.5C 400.908,466.755 398.408,468.422 395.5,469.5C 369.191,479.491 341.858,483.657 313.5,482C 303.136,480.774 292.802,479.107 282.5,477C 272.55,473.405 262.55,469.905 252.5,466.5C 249.739,453.532 246.906,440.532 244,427.5C 238.722,420.072 231.555,417.572 222.5,420C 217.5,421 212.5,422 207.5,423C 204.497,423.749 201.831,424.915 199.5,426.5C 196.737,426.256 194.571,424.923 193,422.5C 189.774,418.668 187.107,414.668 185,410.5C 185.414,410.957 185.914,411.291 186.5,411.5C 235.696,410.836 284.863,410.169 334,409.5C 335.14,391.188 335.974,372.855 336.5,354.5C 336,353.5 335.5,352.5 335,351.5C 319.908,350.675 304.741,350.175 289.5,350C 288.514,339.916 288.181,329.749 288.5,319.5C 291.673,319.401 294.673,320.068 297.5,321.5C 300.406,321.357 302.739,320.357 304.5,318.5 Z M 227.5,463.5 C 224.8,464.356 222.466,465.856 220.5,468C 208.91,468.74 203.244,463.407 203.5,452C 207.954,441.276 214.954,439.11 224.5,445.5C 226.297,447.131 227.464,449.131 228,451.5C 228.497,455.524 228.331,459.524 227.5,463.5 Z M 442.5,444.5 C 445.707,445.532 448.207,447.532 450,450.5C 452.216,464.45 446.383,470.117 432.5,467.5C 430.517,466.018 428.684,464.351 427,462.5C 426.333,458.167 426.333,453.833 427,449.5C 429.493,446.179 432.66,444.346 436.5,444C 435.313,445.019 434.313,446.186 433.5,447.5C 434.833,449.167 436.167,450.833 437.5,452.5C 440.067,450.551 442.734,448.718 445.5,447C 444.058,446.623 443.058,445.79 442.5,444.5 Z"/></g>
<g><path style="opacity:0.042" fill="#e5e5e5" d="M 507.5,447.5 C 512.119,446.686 516.786,446.353 521.5,446.5C 517.37,451.406 514.204,457.073 512,463.5C 510.513,462.259 509.68,462.759 509.5,465C 512.791,471.071 512.124,476.571 507.5,481.5C 505.167,481.833 502.833,482.167 500.5,482.5C 493.55,481.417 486.55,480.083 479.5,478.5C 477.833,478.833 476.167,479.167 474.5,479.5C 473.692,489.12 473.192,498.786 473,508.5C 468.927,513.66 463.76,514.827 457.5,512C 451.162,509.164 444.828,506.331 438.5,503.5C 436.971,503.529 435.804,504.196 435,505.5C 434.971,510.458 434.138,515.124 432.5,519.5C 432.334,514.821 432.501,510.155 433,505.5C 434.376,504.295 435.542,502.962 436.5,501.5C 438.199,501.34 439.866,501.506 441.5,502C 447.951,505.443 454.617,508.443 461.5,511C 464.407,511.718 467.074,511.218 469.5,509.5C 470.189,499.265 470.855,488.932 471.5,478.5C 472.974,476.863 474.808,475.863 477,475.5C 484.523,477.37 492.023,479.037 499.5,480.5C 501.5,480.167 503.5,479.833 505.5,479.5C 505.855,478.478 506.522,477.811 507.5,477.5C 508.158,476.207 508.492,474.707 508.5,473C 507.544,468.683 506.544,464.516 505.5,460.5C 505.5,459.833 505.5,459.167 505.5,458.5C 503.78,455.111 503.113,451.444 503.5,447.5C 503.511,445.983 504.177,444.816 505.5,444C 515.5,443.667 525.5,443.333 535.5,443C 539.316,438.107 539.316,433.274 535.5,428.5C 534.231,424.592 532.565,420.925 530.5,417.5C 529.635,414.9 528.968,412.233 528.5,409.5C 528.686,407.42 529.686,405.92 531.5,405C 540.211,403.691 548.878,402.191 557.5,400.5C 561.784,397.357 562.451,393.69 559.5,389.5C 558.89,387.566 557.89,385.899 556.5,384.5C 553.547,380.375 550.381,376.375 547,372.5C 546.333,369.833 546.333,367.167 547,364.5C 555.765,360.604 564.598,356.938 573.5,353.5C 575.436,350.792 575.936,347.792 575,344.5C 568.301,338.962 561.801,333.295 555.5,327.5C 554.353,325.235 554.186,322.902 555,320.5C 561.914,315.625 569.081,311.125 576.5,307C 580.05,303.269 580.383,299.269 577.5,295C 570.095,290.974 563.095,286.474 556.5,281.5C 555.631,279.283 555.298,276.95 555.5,274.5C 561.094,269.244 566.76,263.911 572.5,258.5C 576.377,254.585 576.377,250.752 572.5,247C 566.836,244.839 561.17,242.839 555.5,241C 552.238,239.788 549.404,237.955 547,235.5C 546.182,232.773 546.348,230.106 547.5,227.5C 551.107,222.719 554.94,218.052 559,213.5C 562.482,209.108 562.315,204.942 558.5,201C 549.893,199.241 541.226,197.908 532.5,197C 530.236,195.221 528.903,192.887 528.5,190C 531.773,181.418 535.107,172.918 538.5,164.5C 538.881,161.675 537.881,159.509 535.5,158C 528.327,157.524 521.16,157.691 514,158.5C 510.528,158.739 507.361,158.073 504.5,156.5C 503.227,152.199 503.227,147.865 504.5,143.5C 505.404,142.791 505.737,141.791 505.5,140.5C 506.371,137.997 507.037,135.33 507.5,132.5C 509.536,127.499 508.203,123.666 503.5,121C 494.2,121.227 485.2,123.06 476.5,126.5C 474.595,125.935 472.929,124.935 471.5,123.5C 470.668,113.183 470.168,102.849 470,92.5C 468.887,91.695 467.721,91.0283 466.5,90.5C 465.726,89.8529 464.726,89.5195 463.5,89.5C 461.645,89.3402 460.312,90.0069 459.5,91.5C 456.352,92.5758 453.352,93.9091 450.5,95.5C 448.033,95.7549 446.033,96.7549 444.5,98.5C 439.728,101.677 435.561,101.01 432,96.5C 431.761,88.366 430.761,80.366 429,72.5C 426.036,67.382 421.87,66.2153 416.5,69C 410.318,74.2547 403.651,78.7547 396.5,82.5C 394.407,82.5142 392.574,81.8476 391,80.5C 388.913,74.7287 386.746,69.0621 384.5,63.5C 384.125,61.3024 383.458,59.3024 382.5,57.5C 379.25,53.5235 375.25,52.6901 370.5,55C 365.138,61.0256 359.805,67.0256 354.5,73C 352.167,73.6667 349.833,73.6667 347.5,73C 342.169,65.031 336.836,57.031 331.5,49C 328.833,48.3333 326.167,48.3333 323.5,49C 319.116,56.2744 314.616,63.4411 310,70.5C 309.517,71.448 309.351,72.448 309.5,73.5C 306.813,73.6641 304.146,73.4974 301.5,73C 296.973,67.1395 291.806,61.9728 286,57.5C 285.517,56.552 285.351,55.552 285.5,54.5C 277.198,51.797 272.532,54.797 271.5,63.5C 270.691,65.0276 270.024,66.6943 269.5,68.5C 268.003,72.4104 266.336,76.4104 264.5,80.5C 262.817,81.5921 260.984,82.2587 259,82.5C 252.129,78.6387 245.629,74.1387 239.5,69C 235.17,66.5298 231.337,67.0298 228,70.5C 226.547,76.074 225.714,81.7406 225.5,87.5C 224.629,90.003 223.963,92.6697 223.5,95.5C 223.586,96.4959 223.252,97.3292 222.5,98C 220.866,99.3083 219.032,100.142 217,100.5C 209.15,97.161 201.317,93.661 193.5,90C 191.16,89.2516 189.16,89.7516 187.5,91.5C 186.542,91.9528 185.708,92.6195 185,93.5C 185.268,103.541 185.101,113.541 184.5,123.5C 183.143,124.685 181.643,125.685 180,126.5C 170.811,124.194 161.644,122.36 152.5,121C 151.5,121.5 150.5,122 149.5,122.5C 148.189,126.984 148.189,131.317 149.5,135.5C 149.99,138.655 150.656,141.655 151.5,144.5C 151.5,145.167 151.5,145.833 151.5,146.5C 152.388,149.054 152.721,151.721 152.5,154.5C 151.859,155.482 151.193,156.482 150.5,157.5C 140.183,158.332 129.849,158.832 119.5,159C 117.496,161.841 116.996,165.007 118,168.5C 120.231,172.33 122.065,176.33 123.5,180.5C 123.932,181.71 124.599,182.71 125.5,183.5C 125.328,184.492 125.662,185.158 126.5,185.5C 127.714,188.129 127.714,190.796 126.5,193.5C 123.059,197.134 118.726,198.467 113.5,197.5C 107.818,197.865 102.485,199.198 97.5,201.5C 94.3818,203.848 93.7151,206.848 95.5,210.5C 95.9321,211.71 96.5987,212.71 97.5,213.5C 100.473,216.707 102.973,220.374 105,224.5C 106.307,226.192 107.807,227.525 109.5,228.5C 109.492,231.545 109.159,234.545 108.5,237.5C 106.447,237.402 104.78,238.069 103.5,239.5C 98.0339,241.044 92.7005,242.877 87.5,245C 84.8936,245.792 82.8936,247.292 81.5,249.5C 80.0829,252.34 80.4162,255.007 82.5,257.5C 87.9344,263.157 93.7677,268.49 100,273.5C 100.777,276.429 100.61,279.263 99.5,282C 91.6082,286.198 84.1082,291.031 77,296.5C 76.3333,299.5 76.3333,302.5 77,305.5C 81.7847,309.143 86.9514,312.143 92.5,314.5C 92.9731,315.906 93.9731,316.573 95.5,316.5C 95.9731,317.906 96.9731,318.573 98.5,318.5C 99.1174,318.611 99.6174,318.944 100,319.5C 100.667,322.167 100.667,324.833 100,327.5C 93.9708,332.699 88.1375,338.033 82.5,343.5C 79.9544,346.799 79.9544,350.132 82.5,353.5C 84.0618,353.733 85.3951,354.4 86.5,355.5C 88.3949,357.241 90.7282,358.241 93.5,358.5C 98.8084,359.743 103.808,361.743 108.5,364.5C 109.833,367.5 109.833,370.5 108.5,373.5C 103.742,379.369 99.242,385.369 95,391.5C 93.9726,395.18 94.8059,398.347 97.5,401C 106.571,402.118 115.571,403.451 124.5,405C 125.386,406.615 126.386,408.115 127.5,409.5C 127.66,411.199 127.494,412.866 127,414.5C 125.18,416.132 124.014,418.132 123.5,420.5C 121.691,423.93 120.691,427.597 120.5,431.5C 119.5,431.5 118.5,431.5 117.5,431.5C 117.335,434.518 117.502,437.518 118,440.5C 118.833,441.333 119.667,442.167 120.5,443C 130.517,443.168 140.517,443.668 150.5,444.5C 151.193,445.518 151.859,446.518 152.5,447.5C 151.344,453.392 150.344,459.392 149.5,465.5C 148.837,467.473 148.504,469.639 148.5,472C 148.408,479.557 152.075,482.224 159.5,480C 165.949,478.276 172.449,476.776 179,475.5C 181.655,475.124 183.488,476.124 184.5,478.5C 184.471,487.921 184.805,497.254 185.5,506.5C 186.234,507.708 186.567,509.041 186.5,510.5C 189.141,511.263 191.808,511.43 194.5,511C 199.222,508.308 204.222,506.142 209.5,504.5C 211.117,503.962 212.784,503.629 214.5,503.5C 212.326,505.081 209.993,506.581 207.5,508C 201.969,510.013 196.469,512.179 191,514.5C 187.396,513.703 184.729,511.703 183,508.5C 182.196,499.785 182.363,491.118 183.5,482.5C 183,481.5 182.5,480.5 182,479.5C 178.591,478.378 175.091,478.211 171.5,479C 165.767,481.162 159.767,482.662 153.5,483.5C 148.189,482.197 145.522,478.864 145.5,473.5C 146.803,466.823 148.303,460.157 150,453.5C 150.944,450.653 150.444,448.153 148.5,446C 138.5,445.667 128.5,445.333 118.5,445C 117.667,444.167 116.833,443.333 116,442.5C 115.333,438.833 115.333,435.167 116,431.5C 119.856,424.797 122.856,417.797 125,410.5C 123.833,409.333 122.667,408.167 121.5,407C 113.147,405.829 104.813,404.495 96.5,403C 92.4677,399.302 91.4677,394.802 93.5,389.5C 97.7522,383.336 102.252,377.336 107,371.5C 107.667,369.833 107.667,368.167 107,366.5C 99.4655,363.504 91.7989,360.504 84,357.5C 78.9119,354.536 77.2452,350.203 79,344.5C 86.3612,338.25 92.8612,331.25 98.5,323.5C 98.3142,321.42 97.3142,319.92 95.5,319C 88.3617,315.597 81.695,311.43 75.5,306.5C 74.1667,302.5 74.1667,298.5 75.5,294.5C 82.7805,289.907 90.1138,285.407 97.5,281C 98.7691,278.861 98.7691,276.695 97.5,274.5C 92.1261,269.823 86.7928,265.157 81.5,260.5C 77.591,255.535 77.591,250.535 81.5,245.5C 89.4011,242.59 97.2345,239.59 105,236.5C 107.201,235.038 107.867,233.038 107,230.5C 102.577,223.989 97.9108,217.655 93,211.5C 92.3333,208.167 92.3333,204.833 93,201.5C 94.5998,200.134 96.4332,199.134 98.5,198.5C 107.249,196.824 115.915,194.824 124.5,192.5C 125.631,190.926 125.798,189.259 125,187.5C 122.27,181.707 119.27,176.04 116,170.5C 115.173,166.459 115.34,162.459 116.5,158.5C 117.7,157.469 119.034,156.635 120.5,156C 130.184,155.832 139.851,155.332 149.5,154.5C 149.839,147.345 148.672,140.345 146,133.5C 142.649,123.872 145.982,118.872 156,118.5C 164.411,120.382 172.911,121.882 181.5,123C 182.321,112.91 182.821,102.744 183,92.5C 185.245,89.0931 188.412,87.7598 192.5,88.5C 200.147,89.8788 207.147,92.7122 213.5,97C 215.902,97.8141 218.235,97.6474 220.5,96.5C 222.662,87.2617 224.495,77.9284 226,68.5C 230.063,65.4402 234.563,64.7735 239.5,66.5C 246.274,71.5897 253.108,76.5897 260,81.5C 261.154,80.2567 262.488,79.2567 264,78.5C 266.665,70.0908 269.498,61.7575 272.5,53.5C 276.263,51.6963 280.263,51.1963 284.5,52C 291.667,58.5 298.5,65.3333 305,72.5C 306.649,71.3523 308.149,70.019 309.5,68.5C 313.409,61.6009 317.409,54.7675 321.5,48C 327.198,45.3333 332.198,46.1666 336.5,50.5C 340.814,58.4488 345.814,65.7822 351.5,72.5C 357.111,66.3433 362.778,60.1766 368.5,54C 374.845,48.9904 380.345,49.8237 385,56.5C 387.593,63.3661 389.926,70.3661 392,77.5C 393.242,78.8721 394.742,79.8721 396.5,80.5C 403.017,76.4105 409.35,72.0771 415.5,67.5C 422.856,63.5888 428.356,65.2554 432,72.5C 433.368,80.4149 434.535,88.4149 435.5,96.5C 437.765,97.6474 440.098,97.8141 442.5,97C 470.736,79.5291 480.736,87.1958 472.5,120C 473.907,122.252 475.907,123.418 478.5,123.5C 486.15,121.741 493.817,120.074 501.5,118.5C 507.087,118.78 510.42,121.614 511.5,127C 509.362,135.464 507.362,143.964 505.5,152.5C 505.833,153.167 506.167,153.833 506.5,154.5C 515.816,155.332 525.149,155.832 534.5,156C 538.709,156.71 541.042,159.21 541.5,163.5C 538.661,172.704 534.994,181.537 530.5,190C 531.68,192.598 533.68,194.264 536.5,195C 543.558,195.701 550.558,196.701 557.5,198C 564.186,200.537 566.019,205.037 563,211.5C 558.675,217.494 554.342,223.494 550,229.5C 549.503,231.81 549.337,234.143 549.5,236.5C 557.13,238.321 564.463,240.821 571.5,244C 577.064,246.894 578.73,251.394 576.5,257.5C 570.512,263.654 564.346,269.654 558,275.5C 557.202,277.259 557.369,278.926 558.5,280.5C 565.824,285.163 573.157,289.83 580.5,294.5C 583.087,299.578 582.42,304.244 578.5,308.5C 570.465,312.323 563.465,317.323 557.5,323.5C 563.532,330.472 570.032,337.139 577,343.5C 577.824,346.882 577.657,350.216 576.5,353.5C 575.784,354.311 574.95,354.978 574,355.5C 566.12,359.106 558.12,362.44 550,365.5C 549.245,368.303 549.578,370.97 551,373.5C 556.393,379.798 560.893,386.631 564.5,394C 564.315,397.112 562.981,399.612 560.5,401.5C 554.877,403.292 549.21,404.959 543.5,406.5C 544.668,407.906 544.335,409.072 542.5,410C 539.78,410.797 537.28,411.963 535,413.5C 532.69,411.082 532.024,411.748 533,415.5C 535.76,422.295 538.594,429.128 541.5,436C 541.358,439.785 539.691,442.618 536.5,444.5C 526.465,444.848 516.798,445.848 507.5,447.5 Z M 325.5,94.5 C 319.779,96.385 315.779,100.218 313.5,106C 313.917,111.862 316.584,116.362 321.5,119.5C 332.167,123.02 338.5,119.187 340.5,108C 339.755,98.9377 334.755,94.4377 325.5,94.5 Z M 444.5,267.5 C 445.735,267.279 446.735,266.612 447.5,265.5C 459.33,247.72 460.164,229.387 450,210.5C 437.39,190.118 419.223,178.785 395.5,176.5C 328.838,174.835 261.838,173.835 194.5,173.5C 198.236,170.431 201.569,167.097 204.5,163.5C 229.6,141.117 258.6,126.45 291.5,119.5C 293.405,120.065 295.071,121.065 296.5,122.5C 303.557,131.594 311.723,139.594 321,146.5C 328.019,148.537 334.186,147.037 339.5,142C 347.167,134.667 354.833,127.333 362.5,120C 402.07,127.457 435.736,145.957 463.5,175.5C 470.446,183.861 476.946,192.528 483,201.5C 484.217,203.507 485.051,205.674 485.5,208C 480.897,220.314 475.731,232.481 470,244.5C 468.819,249.725 468.319,254.558 468.5,259C 470.5,261.333 472.5,263.667 474.5,266C 486.032,271.622 497.698,276.789 509.5,281.5C 510.499,291.478 510.832,301.478 510.5,311.5C 503.446,310.991 496.446,310.991 489.5,311.5C 489.449,317.34 489.282,323.34 489,329.5C 485.605,345.554 475.772,351.721 459.5,348C 454.094,346.927 450.594,343.761 449,338.5C 446.482,318.456 437.315,302.122 421.5,289.5C 429.689,283.988 437.189,277.655 444,270.5C 444.483,269.552 444.649,268.552 444.5,267.5 Z M 148.5,278.5 C 157.915,274.962 167.249,271.129 176.5,267C 179.106,266.208 181.106,264.708 182.5,262.5C 185.921,259.932 187.254,256.432 186.5,252C 185.795,246.005 183.795,240.505 180.5,235.5C 187.468,234.503 194.468,234.17 201.5,234.5C 201.5,272.5 201.5,310.5 201.5,348.5C 184.819,348.666 168.152,348.333 151.5,347.5C 150.072,336.404 148.239,325.404 146,314.5C 145.333,303.5 145.333,292.5 146,281.5C 147.045,280.627 147.878,279.627 148.5,278.5 Z M 288.5,234.5 C 288.5,245.167 288.5,255.833 288.5,266.5C 309.836,266.667 331.169,266.5 352.5,266C 358.112,264.195 363.112,261.362 367.5,257.5C 368.66,253.541 368.827,249.541 368,245.5C 362.673,238.822 355.673,235.156 347,234.5C 331.865,235.31 316.699,235.81 301.5,236C 300.128,236.402 298.795,236.902 297.5,237.5C 294.972,235.126 291.972,234.126 288.5,234.5 Z M 143.5,230.5 C 140.585,232.587 138.085,235.254 136,238.5C 134.18,249.035 138.513,255.368 149,257.5C 155.333,255.835 159.833,252.002 162.5,246C 161.309,235.708 154.976,230.541 143.5,230.5 Z M 512.5,257.5 C 515.285,254.101 517.951,250.601 520.5,247C 519.828,238.312 514.995,232.812 506,230.5C 502.499,231.503 499.332,233.169 496.5,235.5C 490.398,251.01 495.732,258.344 512.5,257.5 Z M 304.5,318.5 C 311.81,319.635 319.31,319.635 327,318.5C 336.965,318.365 345.799,321.365 353.5,327.5C 356.33,330.817 358.497,334.484 360,338.5C 363.233,352.604 366.233,366.604 369,380.5C 373.545,393.375 381.711,403.208 393.5,410C 419.498,410.5 445.498,410.667 471.5,410.5C 469.818,415.844 466.651,420.177 462,423.5C 461.517,424.448 461.351,425.448 461.5,426.5C 449.154,424.331 436.82,421.998 424.5,419.5C 418.058,420.473 413.225,423.806 410,429.5C 407.851,441.112 405.518,452.779 403,464.5C 400.908,466.755 398.408,468.422 395.5,469.5C 369.191,479.491 341.858,483.657 313.5,482C 303.136,480.774 292.802,479.107 282.5,477C 272.55,473.405 262.55,469.905 252.5,466.5C 249.739,453.532 246.906,440.532 244,427.5C 238.722,420.072 231.555,417.572 222.5,420C 217.5,421 212.5,422 207.5,423C 204.497,423.749 201.831,424.915 199.5,426.5C 196.737,426.256 194.571,424.923 193,422.5C 189.774,418.668 187.107,414.668 185,410.5C 185.414,410.957 185.914,411.291 186.5,411.5C 235.696,410.836 284.863,410.169 334,409.5C 335.14,391.188 335.974,372.855 336.5,354.5C 336,353.5 335.5,352.5 335,351.5C 319.908,350.675 304.741,350.175 289.5,350C 288.514,339.916 288.181,329.749 288.5,319.5C 291.673,319.401 294.673,320.068 297.5,321.5C 300.406,321.357 302.739,320.357 304.5,318.5 Z M 533.5,406.5 C 536.518,406.335 539.518,406.502 542.5,407C 539.204,407.457 536.037,408.291 533,409.5C 532.53,408.423 532.697,407.423 533.5,406.5 Z M 507.5,447.5 C 507.5,448.5 507.5,449.5 507.5,450.5C 508.675,450.281 509.675,450.614 510.5,451.5C 509.066,452.23 507.9,453.23 507,454.5C 504.952,451.857 505.119,449.524 507.5,447.5 Z M 227.5,463.5 C 228.331,459.524 228.497,455.524 228,451.5C 227.464,449.131 226.297,447.131 224.5,445.5C 214.954,439.11 207.954,441.276 203.5,452C 203.244,463.407 208.91,468.74 220.5,468C 222.466,465.856 224.8,464.356 227.5,463.5 Z M 442.5,444.5 C 443.058,445.79 444.058,446.623 445.5,447C 442.734,448.718 440.067,450.551 437.5,452.5C 436.167,450.833 434.833,449.167 433.5,447.5C 434.313,446.186 435.313,445.019 436.5,444C 432.66,444.346 429.493,446.179 427,449.5C 426.333,453.833 426.333,458.167 427,462.5C 428.684,464.351 430.517,466.018 432.5,467.5C 446.383,470.117 452.216,464.45 450,450.5C 448.207,447.532 445.707,445.532 442.5,444.5 Z"/></g>
<g><path style="opacity:0.682" fill="#666666" d="M 382.5,57.5 C 383.458,59.3024 384.125,61.3024 384.5,63.5C 382.72,62.0101 382.054,60.0101 382.5,57.5 Z"/></g>
<g><path style="opacity:0.718" fill="#656565" d="M 271.5,63.5 C 271.923,65.7812 271.256,67.4479 269.5,68.5C 270.024,66.6943 270.691,65.0276 271.5,63.5 Z"/></g>
<g><path style="opacity:0.004" fill="#fefffe" d="M 173.5,81.5 C 174.978,81.238 176.311,81.5713 177.5,82.5C 176.833,82.8333 176.167,83.1667 175.5,83.5C 174.287,83.2528 173.62,82.5862 173.5,81.5 Z"/></g>
<g><path style="opacity:0.798" fill="#5c5c5c" d="M 466.5,90.5 C 464.097,90.448 461.764,90.7814 459.5,91.5C 460.312,90.0069 461.645,89.3402 463.5,89.5C 464.726,89.5195 465.726,89.8529 466.5,90.5 Z"/></g>
<g><path style="opacity:0.831" fill="#484848" d="M 225.5,87.5 C 226.036,90.6981 225.369,93.3647 223.5,95.5C 223.963,92.6697 224.629,90.003 225.5,87.5 Z"/></g>
<g><path style="opacity:0.025" fill="#dddddd" d="M 312.5,112.5 C 312.226,107.608 312.893,102.941 314.5,98.5C 318.775,92.9096 324.441,91.0762 331.5,93C 340.751,96.6569 344.251,103.49 342,113.5C 333.725,125.495 324.392,126.495 314,116.5C 313.209,115.255 312.709,113.922 312.5,112.5 Z M 325.5,94.5 C 319.779,96.385 315.779,100.218 313.5,106C 313.917,111.862 316.584,116.362 321.5,119.5C 332.167,123.02 338.5,119.187 340.5,108C 339.755,98.9377 334.755,94.4377 325.5,94.5 Z"/></g>
<g><path style="opacity:0.702" fill="#484848" d="M 450.5,95.5 C 448.967,97.2451 446.967,98.2451 444.5,98.5C 446.033,96.7549 448.033,95.7549 450.5,95.5 Z"/></g>
<g><path style="opacity:0.369" fill="#9e9e9e" d="M 314.5,98.5 C 312.893,102.941 312.226,107.608 312.5,112.5C 310.802,107.479 311.468,102.812 314.5,98.5 Z"/></g>
<g><path style="opacity:0.82" fill="#353535" d="M 187.5,91.5 C 186.011,94.2317 185.345,97.2317 185.5,100.5C 186.99,107.775 187.49,115.109 187,122.5C 186.329,123.252 185.496,123.586 184.5,123.5C 185.101,113.541 185.268,103.541 185,93.5C 185.708,92.6195 186.542,91.9528 187.5,91.5 Z"/></g>
<g><path style="opacity:0.125" fill="#979797" d="M 265.5,124.5 C 263.967,126.245 261.967,127.245 259.5,127.5C 261.033,125.755 263.033,124.755 265.5,124.5 Z"/></g>
<g><path style="opacity:0.718" fill="#767676" d="M 507.5,132.5 C 507.037,135.33 506.371,137.997 505.5,140.5C 505.337,138.143 505.503,135.81 506,133.5C 506.383,132.944 506.883,132.611 507.5,132.5 Z"/></g>
<g><path style="opacity:0.043" fill="#e2e2e2" d="M 435.5,148.5 C 435.973,149.906 436.973,150.573 438.5,150.5C 445.134,154.471 450.801,159.471 455.5,165.5C 456.262,167.262 457.596,168.262 459.5,168.5C 461.143,170.973 463.31,172.973 466,174.5C 467.366,178.363 469.866,181.029 473.5,182.5C 473.351,183.552 473.517,184.552 474,185.5C 479.395,191.768 484.062,198.434 488,205.5C 488.667,207.167 488.667,208.833 488,210.5C 486.354,212.609 485.188,214.943 484.5,217.5C 483.514,219.426 482.514,221.426 481.5,223.5C 478.69,231.409 475.19,239.076 471,246.5C 469.201,253.325 470.701,259.158 475.5,264C 480.288,266.729 485.288,268.896 490.5,270.5C 490.973,271.906 491.973,272.573 493.5,272.5C 499.581,275.417 505.914,277.75 512.5,279.5C 513.578,289.2 513.578,298.867 512.5,308.5C 511.566,309.568 511.232,310.901 511.5,312.5C 504.646,312.176 497.979,312.509 491.5,313.5C 492.076,321.111 491.41,328.444 489.5,335.5C 488.698,336.952 488.198,338.618 488,340.5C 486.034,341.78 484.534,343.447 483.5,345.5C 483.5,346.167 483.167,346.5 482.5,346.5C 480.456,347.508 478.456,348.508 476.5,349.5C 468.37,351.178 460.37,350.678 452.5,348C 450.943,345.704 449.276,343.538 447.5,341.5C 445.861,336.108 444.528,330.775 443.5,325.5C 442.94,323.199 442.44,320.866 442,318.5C 441.617,317.944 441.117,317.611 440.5,317.5C 440.34,315.847 439.674,314.514 438.5,313.5C 438.573,311.973 437.906,310.973 436.5,310.5C 435.199,309.118 434.366,307.452 434,305.5C 430.604,301.935 427.104,298.602 423.5,295.5C 422.415,293.413 420.749,292.08 418.5,291.5C 419.075,289.589 420.075,287.922 421.5,286.5C 428.754,281.584 435.421,275.917 441.5,269.5C 442.5,268.833 443.5,268.167 444.5,267.5C 444.649,268.552 444.483,269.552 444,270.5C 437.189,277.655 429.689,283.988 421.5,289.5C 437.315,302.122 446.482,318.456 449,338.5C 450.594,343.761 454.094,346.927 459.5,348C 475.772,351.721 485.605,345.554 489,329.5C 489.282,323.34 489.449,317.34 489.5,311.5C 496.446,310.991 503.446,310.991 510.5,311.5C 510.832,301.478 510.499,291.478 509.5,281.5C 497.698,276.789 486.032,271.622 474.5,266C 472.5,263.667 470.5,261.333 468.5,259C 468.319,254.558 468.819,249.725 470,244.5C 475.731,232.481 480.897,220.314 485.5,208C 485.051,205.674 484.217,203.507 483,201.5C 476.946,192.528 470.446,183.861 463.5,175.5C 435.736,145.957 402.07,127.457 362.5,120C 354.833,127.333 347.167,134.667 339.5,142C 334.186,147.037 328.019,148.537 321,146.5C 311.723,139.594 303.557,131.594 296.5,122.5C 295.071,121.065 293.405,120.065 291.5,119.5C 258.6,126.45 229.6,141.117 204.5,163.5C 202.95,164.441 201.284,165.107 199.5,165.5C 207.636,157.88 216.303,150.713 225.5,144C 233.672,139.08 242.005,134.413 250.5,130C 253.445,128.869 256.445,128.036 259.5,127.5C 261.967,127.245 263.967,126.245 265.5,124.5C 274.744,120.843 284.41,118.677 294.5,118C 302.493,125.799 310.159,133.799 317.5,142C 324.08,146.82 330.414,146.487 336.5,141C 343.356,133.644 350.689,126.811 358.5,120.5C 359.386,119.675 359.719,118.675 359.5,117.5C 372.373,118.443 384.706,121.61 396.5,127C 410.565,132.396 423.565,139.563 435.5,148.5 Z"/></g>
<g><path style="opacity:0.535" fill="#5c5c5c" d="M 149.5,135.5 C 150.117,135.611 150.617,135.944 151,136.5C 151.497,139.146 151.664,141.813 151.5,144.5C 150.656,141.655 149.99,138.655 149.5,135.5 Z"/></g>
<g><path style="opacity:0.561" fill="#454545" d="M 504.5,143.5 C 503.227,147.865 503.227,152.199 504.5,156.5C 503.2,154.777 502.533,152.61 502.5,150C 502.533,147.39 503.2,145.223 504.5,143.5 Z"/></g>
<g><path style="opacity:0.588" fill="#6e6e6e" d="M 435.5,148.5 C 437.027,148.427 438.027,149.094 438.5,150.5C 436.973,150.573 435.973,149.906 435.5,148.5 Z"/></g>
<g><path style="opacity:0.482" fill="#888888" d="M 151.5,146.5 C 152.748,147.334 153.415,148.667 153.5,150.5C 153.489,152.045 153.156,153.378 152.5,154.5C 152.721,151.721 152.388,149.054 151.5,146.5 Z"/></g>
<g><path style="opacity:0.549" fill="#707070" d="M 455.5,165.5 C 457.404,165.738 458.738,166.738 459.5,168.5C 457.596,168.262 456.262,167.262 455.5,165.5 Z"/></g>
<g><path style="opacity:0.154" fill="#fafafa" d="M 204.5,163.5 C 201.569,167.097 198.236,170.431 194.5,173.5C 261.838,173.835 328.838,174.835 395.5,176.5C 394.5,176.5 393.5,176.5 392.5,176.5C 325.327,176.166 258.327,175.166 191.5,173.5C 193.806,170.527 196.473,167.86 199.5,165.5C 201.284,165.107 202.95,164.441 204.5,163.5 Z"/></g>
<g><path style="opacity:0.503" fill="#9a9a9a" d="M 191.5,173.5 C 258.327,175.166 325.327,176.166 392.5,176.5C 325.167,176.5 257.833,176.5 190.5,176.5C 190.263,175.209 190.596,174.209 191.5,173.5 Z"/></g>
<g><path style="opacity:0.475" fill="#707070" d="M 123.5,180.5 C 125.048,180.821 125.715,181.821 125.5,183.5C 124.599,182.71 123.932,181.71 123.5,180.5 Z"/></g>
<g><path style="opacity:0.014" fill="#e5e5e5" d="M 392.5,176.5 C 393.5,176.5 394.5,176.5 395.5,176.5C 419.223,178.785 437.39,190.118 450,210.5C 460.164,229.387 459.33,247.72 447.5,265.5C 446.735,266.612 445.735,267.279 444.5,267.5C 444.733,265.938 445.4,264.605 446.5,263.5C 446.5,263.167 446.5,262.833 446.5,262.5C 447.833,261.833 448.833,260.833 449.5,259.5C 449.077,257.219 449.744,255.552 451.5,254.5C 452.924,252.485 453.59,250.152 453.5,247.5C 456.146,225.283 448.813,207.116 431.5,193C 419.474,184.638 406.474,179.138 392.5,176.5 Z"/></g>
<g><path style="opacity:0.004" fill="#fefffe" d="M 93.5,188.5 C 97.061,188.915 96.8943,189.915 93,191.5C 91.2053,190.281 91.3719,189.281 93.5,188.5 Z"/></g>
<g><path style="opacity:0.333" fill="#585858" d="M 126.5,185.5 C 127.725,186.152 128.392,187.319 128.5,189C 128.693,191.008 128.026,192.508 126.5,193.5C 127.714,190.796 127.714,188.129 126.5,185.5 Z"/></g>
<g><path style="opacity:0.976" fill="#323232" d="M 113.5,197.5 C 113.389,198.117 113.056,198.617 112.5,199C 107.41,199.427 102.41,200.26 97.5,201.5C 102.485,199.198 107.818,197.865 113.5,197.5 Z"/></g>
<g><path style="opacity:0.227" fill="#707070" d="M 95.5,210.5 C 97.0481,210.821 97.7148,211.821 97.5,213.5C 96.5987,212.71 95.9321,211.71 95.5,210.5 Z"/></g>
<g><path style="opacity:0.741" fill="#515151" d="M 484.5,217.5 C 484.66,219.199 484.494,220.866 484,222.5C 483.329,223.252 482.496,223.586 481.5,223.5C 482.514,221.426 483.514,219.426 484.5,217.5 Z"/></g>
<g><path style="opacity:0.011" fill="#f3f3f3" d="M 203.5,231.5 C 203.5,270.833 203.5,310.167 203.5,349.5C 185.264,350.132 167.264,349.466 149.5,347.5C 149.009,342.482 147.676,337.816 145.5,333.5C 145.002,328.848 144.669,324.181 144.5,319.5C 143.618,306.189 143.285,292.856 143.5,279.5C 143.833,279.5 144.167,279.5 144.5,279.5C 145.708,278.766 147.041,278.433 148.5,278.5C 147.878,279.627 147.045,280.627 146,281.5C 145.333,292.5 145.333,303.5 146,314.5C 148.239,325.404 150.072,336.404 151.5,347.5C 168.152,348.333 184.819,348.666 201.5,348.5C 201.5,310.5 201.5,272.5 201.5,234.5C 194.468,234.17 187.468,234.503 180.5,235.5C 183.795,240.505 185.795,246.005 186.5,252C 187.254,256.432 185.921,259.932 182.5,262.5C 182.5,261.5 182.5,260.5 182.5,259.5C 183.607,254.919 183.773,250.252 183,245.5C 180.833,241.333 178.667,237.167 176.5,233C 185.332,231.53 194.332,231.03 203.5,231.5 Z"/></g>
<g><path style="opacity:0.816" fill="#454545" d="M 109.5,228.5 C 110.638,231.304 110.805,234.304 110,237.5C 108.103,239.016 105.936,239.683 103.5,239.5C 104.78,238.069 106.447,237.402 108.5,237.5C 109.159,234.545 109.492,231.545 109.5,228.5 Z"/></g>
<g><path style="opacity:0.514" fill="#a1a1a1" d="M 287.5,232.5 C 286.522,244.086 286.189,255.753 286.5,267.5C 286.167,267.5 285.833,267.5 285.5,267.5C 284.855,255.452 285.522,243.785 287.5,232.5 Z"/></g>
<g><path style="opacity:0.009" fill="#eaeaea" d="M 287.5,232.5 C 308.836,232.333 330.169,232.5 351.5,233C 358.65,234.676 364.65,238.176 369.5,243.5C 370.36,247.434 370.693,251.434 370.5,255.5C 369.836,258.015 368.503,260.181 366.5,262C 363.185,263.83 359.851,265.33 356.5,266.5C 333.212,267.48 309.878,267.813 286.5,267.5C 286.189,255.753 286.522,244.086 287.5,232.5 Z M 288.5,234.5 C 288.5,245.167 288.5,255.833 288.5,266.5C 309.836,266.667 331.169,266.5 352.5,266C 358.112,264.195 363.112,261.362 367.5,257.5C 368.66,253.541 368.827,249.541 368,245.5C 362.673,238.822 355.673,235.156 347,234.5C 331.865,235.31 316.699,235.81 301.5,236C 300.128,236.402 298.795,236.902 297.5,237.5C 294.972,235.126 291.972,234.126 288.5,234.5 Z"/></g>
<g><path style="opacity:0.724" fill="#525252" d="M 520.5,238.5 C 521.787,239.871 522.453,241.705 522.5,244C 522.494,246.033 522.161,247.866 521.5,249.5C 521.756,245.731 521.423,242.064 520.5,238.5 Z"/></g>
<g><path style="opacity:0.022" fill="#e3e3e3" d="M 142.5,228.5 C 158.196,227.191 164.862,234.191 162.5,249.5C 157.449,258.386 150.116,260.886 140.5,257C 132.242,251.179 130.409,243.679 135,234.5C 137.478,232.361 139.978,230.361 142.5,228.5 Z M 143.5,230.5 C 140.585,232.587 138.085,235.254 136,238.5C 134.18,249.035 138.513,255.368 149,257.5C 155.333,255.835 159.833,252.002 162.5,246C 161.309,235.708 154.976,230.541 143.5,230.5 Z"/></g>
<g><path style="opacity:0.096" fill="#dfdfdf" d="M 520.5,238.5 C 521.423,242.064 521.756,245.731 521.5,249.5C 519.697,251.481 518.03,253.648 516.5,256C 515.255,256.791 513.922,257.291 512.5,257.5C 500.198,262.006 492.865,257.673 490.5,244.5C 491.884,232.982 498.551,227.815 510.5,229C 514.968,230.968 518.301,234.134 520.5,238.5 Z M 512.5,257.5 C 515.285,254.101 517.951,250.601 520.5,247C 519.828,238.312 514.995,232.812 506,230.5C 502.499,231.503 499.332,233.169 496.5,235.5C 490.398,251.01 495.732,258.344 512.5,257.5 Z"/></g>
<g><path style="opacity:0.125" fill="#9a9a9a" d="M 369.5,243.5 C 370.117,243.611 370.617,243.944 371,244.5C 371.81,248.358 371.643,252.024 370.5,255.5C 370.693,251.434 370.36,247.434 369.5,243.5 Z"/></g>
<g><path style="opacity:0.051" fill="#a0a0a0" d="M 453.5,247.5 C 453.59,250.152 452.924,252.485 451.5,254.5C 450.99,251.612 451.656,249.279 453.5,247.5 Z"/></g>
<g><path style="opacity:0.553" fill="#5b5b5b" d="M 81.5,249.5 C 81.5751,252.206 81.9084,254.873 82.5,257.5C 80.4162,255.007 80.0829,252.34 81.5,249.5 Z"/></g>
<g><path style="opacity:0.475" fill="#828282" d="M 449.5,259.5 C 448.833,260.833 447.833,261.833 446.5,262.5C 446.5,260.5 447.5,259.5 449.5,259.5 Z"/></g>
<g><path style="opacity:0.886" fill="#3c3c3c" d="M 203.5,231.5 C 204.117,231.611 204.617,231.944 205,232.5C 205.167,252.167 205.333,271.833 205.5,291.5C 205.5,311.512 204.833,331.178 203.5,350.5C 203.5,350.167 203.5,349.833 203.5,349.5C 203.5,310.167 203.5,270.833 203.5,231.5 Z"/></g>
<g><path style="opacity:0.508" fill="#5c5c5c" d="M 356.5,266.5 C 356.389,267.117 356.056,267.617 355.5,268C 331.996,268.83 308.663,268.663 285.5,267.5C 285.833,267.5 286.167,267.5 286.5,267.5C 309.878,267.813 333.212,267.48 356.5,266.5 Z"/></g>
<g><path style="opacity:0.353" fill="#808080" d="M 446.5,263.5 C 445.4,264.605 444.733,265.938 444.5,267.5C 443.5,268.167 442.5,268.833 441.5,269.5C 442.247,266.638 443.914,264.638 446.5,263.5 Z"/></g>
<g><path style="opacity:0.475" fill="#7e7e7e" d="M 490.5,270.5 C 492.027,270.427 493.027,271.094 493.5,272.5C 491.973,272.573 490.973,271.906 490.5,270.5 Z"/></g>
<g><path style="opacity:0.018" fill="#d5d5d5" d="M 182.5,259.5 C 182.5,260.5 182.5,261.5 182.5,262.5C 181.106,264.708 179.106,266.208 176.5,267C 167.249,271.129 157.915,274.962 148.5,278.5C 147.041,278.433 145.708,278.766 144.5,279.5C 145.348,277.907 146.681,276.74 148.5,276C 160.545,271.81 171.879,266.31 182.5,259.5 Z"/></g>
<g><path style="opacity:0.318" fill="#898989" d="M 555.5,274.5 C 555.298,276.95 555.631,279.283 556.5,281.5C 555.275,280.848 554.608,279.681 554.5,278C 554.514,276.615 554.848,275.449 555.5,274.5 Z"/></g>
<g><path style="opacity:0.694" fill="#646464" d="M 421.5,286.5 C 420.075,287.922 419.075,289.589 418.5,291.5C 417.503,291.53 416.836,291.03 416.5,290C 417.77,288.225 419.436,287.058 421.5,286.5 Z"/></g>
<g><path style="opacity:0.2" fill="#939393" d="M 418.5,291.5 C 420.749,292.08 422.415,293.413 423.5,295.5C 421.251,294.92 419.585,293.587 418.5,291.5 Z"/></g>
<g><path style="opacity:0.404" fill="#999999" d="M 143.5,279.5 C 143.285,292.856 143.618,306.189 144.5,319.5C 143.698,318.048 143.198,316.382 143,314.5C 142.174,302.659 142.341,290.993 143.5,279.5 Z"/></g>
<g><path style="opacity:0.588" fill="#656565" d="M 436.5,310.5 C 437.906,310.973 438.573,311.973 438.5,313.5C 437.094,313.027 436.427,312.027 436.5,310.5 Z"/></g>
<g><path style="opacity:0.525" fill="#b6b6b6" d="M 512.5,308.5 C 512.5,310.167 512.5,311.833 512.5,313.5C 505.5,313.5 498.5,313.5 491.5,313.5C 497.979,312.509 504.646,312.176 511.5,312.5C 511.232,310.901 511.566,309.568 512.5,308.5 Z"/></g>
<g><path style="opacity:0.655" fill="#656565" d="M 92.5,314.5 C 94.0269,314.427 95.0269,315.094 95.5,316.5C 93.9731,316.573 92.9731,315.906 92.5,314.5 Z"/></g>
<g><path style="opacity:0.655" fill="#6a6a6a" d="M 95.5,316.5 C 97.0269,316.427 98.0269,317.094 98.5,318.5C 96.9731,318.573 95.9731,317.906 95.5,316.5 Z"/></g>
<g><path style="opacity:0.49" fill="#737373" d="M 335.5,317.5 C 318.991,317.17 302.658,317.504 286.5,318.5C 286.167,318.5 285.833,318.5 285.5,318.5C 293.472,317.169 301.806,316.502 310.5,316.5C 319.007,316.5 327.34,316.834 335.5,317.5 Z"/></g>
<g><path style="opacity:0.635" fill="#7b7b7b" d="M 440.5,317.5 C 441.117,317.611 441.617,317.944 442,318.5C 442.44,320.866 442.94,323.199 443.5,325.5C 442.883,325.389 442.383,325.056 442,324.5C 441.56,322.134 441.06,319.801 440.5,317.5 Z"/></g>
<g><path style="opacity:0.969" fill="#3b3b3b" d="M 489.5,335.5 C 489.5,337.833 489.5,340.167 489.5,342.5C 487.328,343.206 485.328,344.206 483.5,345.5C 484.534,343.447 486.034,341.78 488,340.5C 488.198,338.618 488.698,336.952 489.5,335.5 Z"/></g>
<g><path style="opacity:0.824" fill="#4b4b4b" d="M 82.5,343.5 C 82.5,346.833 82.5,350.167 82.5,353.5C 79.9544,350.132 79.9544,346.799 82.5,343.5 Z"/></g>
<g><path style="opacity:0.451" fill="#646464" d="M 145.5,333.5 C 147.676,337.816 149.009,342.482 149.5,347.5C 148.883,347.389 148.383,347.056 148,346.5C 147.004,342.184 146.17,337.851 145.5,333.5 Z"/></g>
<g><path style="opacity:0.882" fill="#525252" d="M 482.5,346.5 C 481.313,348.975 479.313,349.975 476.5,349.5C 478.456,348.508 480.456,347.508 482.5,346.5 Z"/></g>
<g><path style="opacity:0.395" fill="#bababa" d="M 149.5,347.5 C 167.264,349.466 185.264,350.132 203.5,349.5C 203.5,349.833 203.5,350.167 203.5,350.5C 185.5,350.5 167.5,350.5 149.5,350.5C 149.5,349.5 149.5,348.5 149.5,347.5 Z"/></g>
<g><path style="opacity:0.027" fill="#f7f7f7" d="M 286.5,318.5 C 292.5,318.5 298.5,318.5 304.5,318.5C 302.739,320.357 300.406,321.357 297.5,321.5C 294.673,320.068 291.673,319.401 288.5,319.5C 288.181,329.749 288.514,339.916 289.5,350C 304.741,350.175 319.908,350.675 335,351.5C 335.5,352.5 336,353.5 336.5,354.5C 335.974,372.855 335.14,391.188 334,409.5C 284.863,410.169 235.696,410.836 186.5,411.5C 185.914,411.291 185.414,410.957 185,410.5C 187.107,414.668 189.774,418.668 193,422.5C 194.571,424.923 196.737,426.256 199.5,426.5C 197.636,427.793 195.636,427.793 193.5,426.5C 189.154,420.825 184.488,415.492 179.5,410.5C 229.822,408.505 280.489,407.838 331.5,408.5C 332.832,399.525 333.498,390.191 333.5,380.5C 333.5,370.994 333.166,361.661 332.5,352.5C 317.342,351.504 302.009,351.17 286.5,351.5C 286.5,340.5 286.5,329.5 286.5,318.5 Z"/></g>
<g><path style="opacity:0.023" fill="#e8e8e8" d="M 286.5,318.5 C 302.658,317.504 318.991,317.17 335.5,317.5C 346.361,318.212 354.528,323.212 360,332.5C 362.432,337.223 364.099,342.223 365,347.5C 367.332,358.827 369.666,370.161 372,381.5C 375.771,393.288 383.271,402.122 394.5,408C 421.839,408.167 449.173,408.667 476.5,409.5C 472.522,415.142 468.189,420.476 463.5,425.5C 462.833,425.833 462.167,426.167 461.5,426.5C 461.351,425.448 461.517,424.448 462,423.5C 466.651,420.177 469.818,415.844 471.5,410.5C 445.498,410.667 419.498,410.5 393.5,410C 381.711,403.208 373.545,393.375 369,380.5C 366.233,366.604 363.233,352.604 360,338.5C 358.497,334.484 356.33,330.817 353.5,327.5C 345.799,321.365 336.965,318.365 327,318.5C 319.31,319.635 311.81,319.635 304.5,318.5C 298.5,318.5 292.5,318.5 286.5,318.5 Z"/></g>
<g><path style="opacity:0.459" fill="#868686" d="M 285.5,318.5 C 285.833,318.5 286.167,318.5 286.5,318.5C 286.5,329.5 286.5,340.5 286.5,351.5C 302.009,351.17 317.342,351.504 332.5,352.5C 332.83,371.008 332.497,389.341 331.5,407.5C 331.5,389.167 331.5,370.833 331.5,352.5C 316.167,352.5 300.833,352.5 285.5,352.5C 285.5,341.167 285.5,329.833 285.5,318.5 Z"/></g>
<g><path style="opacity:0.6" fill="#696969" d="M 86.5,355.5 C 89.2718,355.759 91.6051,356.759 93.5,358.5C 90.7282,358.241 88.3949,357.241 86.5,355.5 Z"/></g>
<g><path style="opacity:0.478" fill="#c5c5c5" d="M 332.5,352.5 C 333.166,361.661 333.5,370.994 333.5,380.5C 333.498,390.191 332.832,399.525 331.5,408.5C 331.5,408.167 331.5,407.833 331.5,407.5C 332.497,389.341 332.83,371.008 332.5,352.5 Z"/></g>
<g><path style="opacity:0.365" fill="#7a7a7a" d="M 556.5,384.5 C 557.89,385.899 558.89,387.566 559.5,389.5C 557.273,388.599 556.273,386.933 556.5,384.5 Z"/></g>
<g><path style="opacity:0.383" fill="#585858" d="M 331.5,407.5 C 331.5,407.833 331.5,408.167 331.5,408.5C 280.489,407.838 229.822,408.505 179.5,410.5C 178.596,409.791 178.263,408.791 178.5,407.5C 229.5,407.5 280.5,407.5 331.5,407.5 Z"/></g>
<g><path style="opacity:0.545" fill="#4a4a4a" d="M 127.5,409.5 C 128.622,411.288 128.789,413.288 128,415.5C 126.583,417.398 125.083,419.064 123.5,420.5C 124.014,418.132 125.18,416.132 127,414.5C 127.494,412.866 127.66,411.199 127.5,409.5 Z"/></g>
<g><path style="opacity:0.91" fill="#333333" d="M 530.5,417.5 C 532.565,420.925 534.231,424.592 535.5,428.5C 532.556,425.514 530.889,421.847 530.5,417.5 Z"/></g>
<g><path style="opacity:0.086" fill="#8d8d8d" d="M 463.5,425.5 C 463.586,426.496 463.252,427.329 462.5,428C 458.642,428.81 454.976,428.643 451.5,427.5C 455.042,427.813 458.375,427.479 461.5,426.5C 462.167,426.167 462.833,425.833 463.5,425.5 Z"/></g>
<g><path style="opacity:0.275" fill="#838383" d="M 221.5,440.5 C 217.102,440.294 212.768,440.627 208.5,441.5C 208.611,440.883 208.944,440.383 209.5,440C 213.689,439.188 217.689,439.355 221.5,440.5 Z"/></g>
<g><path style="opacity:0.125" fill="#999999" d="M 412.5,431.5 C 412.976,435.378 411.976,438.712 409.5,441.5C 410.13,437.952 411.13,434.619 412.5,431.5 Z"/></g>
<g><path style="opacity:0.31" fill="#8f8f8f" d="M 208.5,441.5 C 207.421,443.543 205.754,444.876 203.5,445.5C 204.539,443.469 206.205,442.136 208.5,441.5 Z"/></g>
<g><path style="opacity:0.514" fill="#a1a1a1" d="M 244.5,439.5 C 245.434,442.656 246.101,445.989 246.5,449.5C 245.883,449.389 245.383,449.056 245,448.5C 244.502,445.518 244.335,442.518 244.5,439.5 Z"/></g>
<g><path style="opacity:0.475" fill="#838383" d="M 444.5,441.5 C 446.027,441.427 447.027,442.094 447.5,443.5C 445.973,443.573 444.973,442.906 444.5,441.5 Z"/></g>
<g><path style="opacity:0.8" fill="#4d4d4d" d="M 409.5,446.5 C 409.662,448.527 409.495,450.527 409,452.5C 408.617,453.056 408.117,453.389 407.5,453.5C 407.927,450.99 408.593,448.657 409.5,446.5 Z"/></g>
<g><path style="opacity:0.227" fill="#878787" d="M 450.5,446.5 C 452.975,447.687 453.975,449.687 453.5,452.5C 452.508,450.544 451.508,448.544 450.5,446.5 Z"/></g>
<g><path style="opacity:0.824" fill="#646464" d="M 152.5,447.5 C 153.634,449.966 153.801,452.633 153,455.5C 151.768,458.3 151.101,461.3 151,464.5C 150.617,465.056 150.117,465.389 149.5,465.5C 150.344,459.392 151.344,453.392 152.5,447.5 Z"/></g>
<g><path style="opacity:0.757" fill="#454545" d="M 503.5,447.5 C 503.113,451.444 503.78,455.111 505.5,458.5C 504.5,458.5 503.5,458.5 502.5,458.5C 502.185,454.629 502.518,450.962 503.5,447.5 Z"/></g>
<g><path style="opacity:0.029" fill="#dedede" d="M 221.5,440.5 C 224.55,442.364 227.217,444.697 229.5,447.5C 230.661,451.795 230.828,456.129 230,460.5C 229.623,461.942 228.79,462.942 227.5,463.5C 226.455,466.385 224.455,468.552 221.5,470C 211.042,472.529 204.208,468.695 201,458.5C 199.841,453.614 200.674,449.281 203.5,445.5C 205.754,444.876 207.421,443.543 208.5,441.5C 212.768,440.627 217.102,440.294 221.5,440.5 Z M 227.5,463.5 C 228.331,459.524 228.497,455.524 228,451.5C 227.464,449.131 226.297,447.131 224.5,445.5C 214.954,439.11 207.954,441.276 203.5,452C 203.244,463.407 208.91,468.74 220.5,468C 222.466,465.856 224.8,464.356 227.5,463.5 Z"/></g>
<g><path style="opacity:0.431" fill="#afafaf" d="M 425.5,447.5 C 423.956,453.629 424.289,459.629 426.5,465.5C 425.21,464.942 424.377,463.942 424,462.5C 423.833,460 423.667,457.5 423.5,455C 423.525,452.071 424.191,449.571 425.5,447.5 Z"/></g>
<g><path style="opacity:0.061" fill="#ededed" d="M 444.5,441.5 C 444.973,442.906 445.973,443.573 447.5,443.5C 449.19,443.856 450.19,444.856 450.5,446.5C 451.508,448.544 452.508,450.544 453.5,452.5C 453.21,466.942 445.877,472.776 431.5,470C 429.34,469.004 427.673,467.504 426.5,465.5C 424.289,459.629 423.956,453.629 425.5,447.5C 430.437,440.508 436.77,438.508 444.5,441.5 Z M 442.5,444.5 C 443.058,445.79 444.058,446.623 445.5,447C 442.734,448.718 440.067,450.551 437.5,452.5C 436.167,450.833 434.833,449.167 433.5,447.5C 434.313,446.186 435.313,445.019 436.5,444C 432.66,444.346 429.493,446.179 427,449.5C 426.333,453.833 426.333,458.167 427,462.5C 428.684,464.351 430.517,466.018 432.5,467.5C 446.383,470.117 452.216,464.45 450,450.5C 448.207,447.532 445.707,445.532 442.5,444.5 Z"/></g>
<g><path style="opacity:0.067" fill="#e8e8e8" d="M 461.5,426.5 C 458.375,427.479 455.042,427.813 451.5,427.5C 441.184,424.395 430.517,422.895 419.5,423C 415.857,424.805 413.524,427.638 412.5,431.5C 411.13,434.619 410.13,437.952 409.5,441.5C 409.5,443.167 409.5,444.833 409.5,446.5C 408.593,448.657 407.927,450.99 407.5,453.5C 406.522,458.391 405.522,463.391 404.5,468.5C 396.566,471.323 388.566,474.157 380.5,477C 370.948,479.481 361.281,481.314 351.5,482.5C 337.522,483.388 323.522,483.722 309.5,483.5C 289.191,481.484 269.858,476.317 251.5,468C 248.422,462.271 246.756,456.104 246.5,449.5C 246.101,445.989 245.434,442.656 244.5,439.5C 243.411,434.426 241.744,429.592 239.5,425C 235.215,422.294 230.548,421.127 225.5,421.5C 221.252,421.953 217.252,422.953 213.5,424.5C 208.833,425.167 204.167,425.833 199.5,426.5C 201.831,424.915 204.497,423.749 207.5,423C 212.5,422 217.5,421 222.5,420C 231.555,417.572 238.722,420.072 244,427.5C 246.906,440.532 249.739,453.532 252.5,466.5C 262.55,469.905 272.55,473.405 282.5,477C 292.802,479.107 303.136,480.774 313.5,482C 341.858,483.657 369.191,479.491 395.5,469.5C 398.408,468.422 400.908,466.755 403,464.5C 405.518,452.779 407.851,441.112 410,429.5C 413.225,423.806 418.058,420.473 424.5,419.5C 436.82,421.998 449.154,424.331 461.5,426.5 Z"/></g>
<g><path style="opacity:0.765" fill="#4b4b4b" d="M 225.5,421.5 C 225.389,422.117 225.056,422.617 224.5,423C 220.83,423.548 217.163,424.048 213.5,424.5C 217.252,422.953 221.252,421.953 225.5,421.5 Z"/></g>
<g><path style="opacity:0.965" fill="#505050" d="M 505.5,460.5 C 506.544,464.516 507.544,468.683 508.5,473C 508.492,474.707 508.158,476.207 507.5,477.5C 506.112,472.019 505.446,466.352 505.5,460.5 Z"/></g>
<g><path style="opacity:0.224" fill="#a2a2a2" d="M 351.5,482.5 C 350.048,483.302 348.382,483.802 346.5,484C 333.993,484.827 321.66,484.66 309.5,483.5C 323.522,483.722 337.522,483.388 351.5,482.5 Z"/></g>
<g><path style="opacity:0.642" fill="#4f4f4f" d="M 471.5,478.5 C 470.855,488.932 470.189,499.265 469.5,509.5C 468.858,498.779 469.525,488.446 471.5,478.5 Z"/></g>
<g><path style="opacity:0.422" fill="#575757" d="M 184.5,478.5 C 185.794,480.048 186.461,482.048 186.5,484.5C 185.751,491.816 185.418,499.149 185.5,506.5C 184.805,497.254 184.471,487.921 184.5,478.5 Z"/></g>
<g><path style="opacity:0.204" fill="#a1a1a1" d="M 215.5,501.5 C 215.167,502.167 214.833,502.833 214.5,503.5C 212.784,503.629 211.117,503.962 209.5,504.5C 210.911,502.461 212.911,501.461 215.5,501.5 Z"/></g>
<g><path style="opacity:0.616" fill="#757575" d="M 223.5,506.5 C 225.414,509.684 226.08,513.351 225.5,517.5C 224.77,513.939 224.103,510.273 223.5,506.5 Z"/></g>
<g><path style="opacity:0.167" fill="#c3c3c3" d="M 436.5,501.5 C 435.542,502.962 434.376,504.295 433,505.5C 432.501,510.155 432.334,514.821 432.5,519.5C 432.5,519.833 432.5,520.167 432.5,520.5C 431.022,521.448 430.022,522.781 429.5,524.5C 429.448,522.097 429.781,519.764 430.5,517.5C 431.208,513.215 431.708,508.882 432,504.5C 433.129,502.859 434.629,501.859 436.5,501.5 Z"/></g>
<g><path style="opacity:0.658" fill="#4e4e4e" d="M 430.5,517.5 C 429.781,519.764 429.448,522.097 429.5,524.5C 429.737,525.791 429.404,526.791 428.5,527.5C 428.335,524.482 428.502,521.482 429,518.5C 429.383,517.944 429.883,517.611 430.5,517.5 Z"/></g>
<g><path style="opacity:0.275" fill="#878787" d="M 354.5,528.5 C 351.763,528.401 349.096,528.735 346.5,529.5C 347.492,527.974 348.992,527.307 351,527.5C 352.385,527.514 353.551,527.848 354.5,528.5 Z"/></g>
<g><path style="opacity:0.022" fill="#dedede" d="M 354.5,528.5 C 360.6,534.852 366.6,541.185 372.5,547.5C 371.5,547.5 370.5,547.5 369.5,547.5C 363.825,540.992 357.658,534.992 351,529.5C 349.395,530.101 348.062,531.101 347,532.5C 342.958,539.043 339.124,545.71 335.5,552.5C 334.378,553.63 333.044,554.297 331.5,554.5C 329.167,553.833 326.833,553.167 324.5,552.5C 326.857,552.663 329.19,552.497 331.5,552C 336.482,544.526 341.482,537.026 346.5,529.5C 349.096,528.735 351.763,528.401 354.5,528.5 Z"/></g>
<g><path style="opacity:0.029" fill="#e8e8e8" d="M 215.5,501.5 C 219.47,501.35 222.137,503.017 223.5,506.5C 224.103,510.273 224.77,513.939 225.5,517.5C 225.5,518.5 225.5,519.5 225.5,520.5C 225.259,522.898 225.926,524.898 227.5,526.5C 227.018,531.461 229.351,534.128 234.5,534.5C 237.651,533.091 240.651,531.425 243.5,529.5C 246.455,527.878 249.122,525.878 251.5,523.5C 253.618,521.067 256.284,519.4 259.5,518.5C 261.762,519.467 264.095,520.134 266.5,520.5C 268.011,527.205 269.844,533.872 272,540.5C 273.639,546.461 277.472,548.628 283.5,547C 289.33,541.668 294.663,535.835 299.5,529.5C 303.035,526.872 306.535,526.872 310,529.5C 314.747,537.273 319.58,544.94 324.5,552.5C 323.833,552.5 323.167,552.5 322.5,552.5C 317.274,546.398 312.774,539.732 309,532.5C 307.938,531.101 306.605,530.101 305,529.5C 298.243,536.257 291.409,543.091 284.5,550C 285.833,550.333 287.167,550.667 288.5,551C 284.148,552.682 280.314,555.182 277,558.5C 273.851,555.552 274.351,553.052 278.5,551C 275.046,549.546 272.546,547.046 271,543.5C 267.762,536.792 265.596,529.792 264.5,522.5C 262.181,521.833 259.847,521.666 257.5,522C 251.779,526.721 245.779,531.054 239.5,535C 233.866,537.776 229.366,536.609 226,531.5C 224.493,522.806 222.659,514.139 220.5,505.5C 218.821,503.896 216.821,503.229 214.5,503.5C 214.833,502.833 215.167,502.167 215.5,501.5 Z"/></g>
<g><path style="opacity:0.514" fill="#949494" d="M 225.5,520.5 C 227.074,522.102 227.741,524.102 227.5,526.5C 225.926,524.898 225.259,522.898 225.5,520.5 Z"/></g>
<g><path style="opacity:0.467" fill="#7d7d7d" d="M 251.5,523.5 C 249.122,525.878 246.455,527.878 243.5,529.5C 245.313,526.353 247.98,524.353 251.5,523.5 Z"/></g>
<g><path style="opacity:0.005" fill="#f5f5f5" d="M 428.5,527.5 C 429.404,526.791 429.737,525.791 429.5,524.5C 430.022,522.781 431.022,521.448 432.5,520.5C 432.711,526.036 431.044,530.869 427.5,535C 424.241,536.728 420.908,536.894 417.5,535.5C 410.85,531.449 404.516,526.949 398.5,522C 396.741,521.202 395.074,521.369 393.5,522.5C 390.104,530.356 387.104,538.356 384.5,546.5C 386.908,547.453 389.075,548.787 391,550.5C 391.667,551.5 391.667,552.5 391,553.5C 387.801,554.668 384.634,555.835 381.5,557C 381.833,558 382.167,559 382.5,560C 386.43,560.242 390.097,561.075 393.5,562.5C 385.5,562.5 377.5,562.5 369.5,562.5C 372.297,559.792 373.297,556.625 372.5,553C 373.167,552.333 373.833,551.667 374.5,551C 372.119,550.777 370.453,549.61 369.5,547.5C 370.5,547.5 371.5,547.5 372.5,547.5C 375.685,547.98 378.519,547.314 381,545.5C 384.297,536.95 387.797,528.45 391.5,520C 393.754,518.85 396.087,518.516 398.5,519C 405.788,524.798 413.454,529.965 421.5,534.5C 425.552,533.782 427.885,531.448 428.5,527.5 Z"/></g>
<g><path style="opacity:0.004" fill="#fefffe" d="M 303.5,544.5 C 305.476,545.427 305.809,546.76 304.5,548.5C 302.358,547.563 302.024,546.23 303.5,544.5 Z"/></g>
<g><path style="opacity:0.004" fill="#fefffe" d="M 306.5,548.5 C 309.475,549.655 312.142,551.322 314.5,553.5C 310.907,555.012 307.907,554.178 305.5,551C 306.252,550.329 306.586,549.496 306.5,548.5 Z"/></g>
<g><path style="opacity:0.009" fill="#fefefe" d="M 322.5,552.5 C 323.167,552.5 323.833,552.5 324.5,552.5C 326.833,553.167 329.167,553.833 331.5,554.5C 330.527,554.987 329.527,555.487 328.5,556C 330.734,556.969 332.734,558.302 334.5,560C 338.796,560.076 342.796,560.909 346.5,562.5C 336.5,562.5 326.5,562.5 316.5,562.5C 319.186,558.837 322.853,556.837 327.5,556.5C 325.153,555.849 323.486,554.516 322.5,552.5 Z"/></g>
<g><path style="opacity:0.004" fill="#fefffe" d="M 284.5,562.5 C 280.833,562.5 277.167,562.5 273.5,562.5C 273.611,561.883 273.944,561.383 274.5,561C 275.833,560.833 277.167,560.667 278.5,560.5C 280.883,560.361 282.883,561.028 284.5,562.5 Z"/></g>
</svg>
